<svg xmlns="http://www.w3.org/2000/svg" xmlns:xlink="http://www.w3.org/1999/xlink" width="19" height="19" viewBox="0 0 19 19"><defs><path id="i1j4a" d="M990.128 220.997a.861.861 0 0 1-.611-.253l-8.033-8.03-8.034 8.03a.861.861 0 0 1-1.222 0 .864.864 0 0 1 0-1.222l8.033-8.03-8.033-8.031a.864.864 0 1 1 1.222-1.222l8.034 8.03 8.033-8.03a.864.864 0 0 1 1.222 1.222l-8.033 8.03 8.033 8.03a.864.864 0 0 1-.611 1.476z"/></defs><g><g transform="translate(-972 -202)"><use fill="#bfbfbf" xlink:href="#i1j4a"/></g></g></svg>