<svg xmlns="http://www.w3.org/2000/svg" xmlns:xlink="http://www.w3.org/1999/xlink" width="28" height="28" viewBox="0 0 28 28"><defs><path id="dhjma" d="M1417.039 475.926v-28.852h27.922v28.852zm10.513-3.073c5.916-2.524 6.993-2.122 6.346-7.65 0 .001 9.03-6.37 8.03-13.664a.581.581 0 0 0-.144-.337.588.588 0 0 0-.336-.143c-7.289-1.001-13.657 8.035-13.657 8.035-5.525-.648-5.122.43-7.644 6.35-.482 1.129.3 1.517 1.158 1.2l2.75-1.015 3.312 3.314-1.015 2.751c-.317.858.071 1.64 1.2 1.159zm7.636-15.05a1.962 1.962 0 0 1 0-2.773 1.958 1.958 0 0 1 2.77 0 1.96 1.96 0 0 1-2.77 2.772z"/><path id="dhjmb" d="M1427.552 472.853c-1.129.482-1.516-.3-1.2-1.159l1.015-2.75-3.313-3.315-2.75 1.015c-.857.317-1.64-.071-1.157-1.2 2.522-5.92 2.12-6.998 7.644-6.35 0 0 6.368-9.036 13.657-8.035a.588.588 0 0 1 .336.143c.068.07.122.176.144.337 1 7.293-8.03 13.665-8.03 13.665.647 5.527-.43 5.125-6.346 7.649zm10.407-15.05a1.96 1.96 0 0 0 0-2.773 1.958 1.958 0 0 0-2.77 0 1.962 1.962 0 0 0 0 2.772 1.958 1.958 0 0 0 2.77 0z"/><clipPath id="dhjmc"><use fill="#fff" xlink:href="#dhjma"/></clipPath></defs><g><g transform="translate(-1417 -448)"><use fill="#00b9e7" xlink:href="#dhjmb"/><use fill="#fff" fill-opacity="0" stroke="#fff" stroke-linecap="round" stroke-linejoin="round" stroke-miterlimit="50" stroke-width="6" clip-path="url(&quot;#dhjmc&quot;)" xlink:href="#dhjmb"/></g></g></svg>