<svg xmlns="http://www.w3.org/2000/svg" xmlns:xlink="http://www.w3.org/1999/xlink" width="355" height="192" viewBox="0 0 355 192"><defs><path id="584sa" d="M181 382.929c0-31.518 26.547-57.07 59.293-57.07 2.197 0 4.363.124 6.499.35a63.405 63.405 0 0 1-1.293-12.72c0-36.17 30.464-65.493 68.045-65.493 30.936 0 57.033 19.877 65.3 47.082 7.034-5.462 15.977-8.737 25.718-8.737 18.138 0 33.514 11.34 38.92 27.053a70.182 70.182 0 0 1 24.472-4.382c37.58 0 68.045 29.322 68.045 65.492 0 36.172-30.464 65.494-68.045 65.494H231.54v-.624c-28.595-4.073-50.54-27.79-50.54-56.445z"/><clipPath id="584sb"><use fill="#fff" xlink:href="#584sa"/></clipPath></defs><g><g transform="translate(-181 -248)"><use fill="#75c5f4" xlink:href="#584sa"/><use fill="#fff" fill-opacity="0" stroke="#74c5f4" stroke-linecap="round" stroke-linejoin="round" stroke-miterlimit="50" stroke-opacity=".42" stroke-width="2" clip-path="url(&quot;#584sb&quot;)" xlink:href="#584sa"/></g></g></svg>