<svg xmlns="http://www.w3.org/2000/svg" xmlns:xlink="http://www.w3.org/1999/xlink" width="335" height="188" viewBox="0 0 335 188"><defs><path id="v4q9a" d="M470 432.118c0-30.862-25.051-55.88-55.953-55.88a56.58 56.58 0 0 0-6.132.34 64.328 64.328 0 0 0 1.22-12.453c0-35.417-28.748-64.129-64.212-64.129-29.193 0-53.82 19.464-61.62 46.1a38.551 38.551 0 0 0-24.27-8.554c-17.116 0-31.626 11.104-36.728 26.49a64.096 64.096 0 0 0-23.093-4.292c-35.463 0-64.212 28.712-64.212 64.13 0 35.417 28.749 64.128 64.212 64.128h223.095v-.61C449.29 483.398 470 460.175 470 432.117z"/><clipPath id="v4q9b"><use fill="#fff" xlink:href="#v4q9a"/></clipPath></defs><g><g transform="translate(-135 -300)"><use fill="#fff" xlink:href="#v4q9a"/><use fill="#fff" fill-opacity="0" stroke="#06bfed" stroke-linecap="round" stroke-linejoin="round" stroke-miterlimit="50" stroke-width="8" clip-path="url(&quot;#v4q9b&quot;)" xlink:href="#v4q9a"/></g></g></svg>