<svg xmlns="http://www.w3.org/2000/svg" xmlns:xlink="http://www.w3.org/1999/xlink" width="201" height="109" viewBox="0 0 201 109"><defs><path id="3p8sa" d="M81 466.6c0-17.893 15.03-32.399 33.572-32.399 1.244 0 2.47.071 3.68.198a36.09 36.09 0 0 1-.733-7.22c0-20.535 17.249-37.181 38.527-37.181 17.516 0 32.292 11.284 36.973 26.728 3.982-3.1 9.046-4.96 14.561-4.96 10.27 0 18.976 6.439 22.037 15.359a39.644 39.644 0 0 1 13.856-2.488c21.278 0 38.527 16.646 38.527 37.18 0 20.535-17.25 37.181-38.527 37.181H109.616v-.353C93.426 496.333 81 482.868 81 466.6z"/><clipPath id="3p8sb"><use fill="#fff" xlink:href="#3p8sa"/></clipPath></defs><g><g transform="translate(-81 -390)"><use fill="#f5f5f5" xlink:href="#3p8sa"/><use fill="#fff" fill-opacity="0" stroke="#e6e7e7" stroke-linecap="round" stroke-linejoin="round" stroke-miterlimit="50" stroke-width="2" clip-path="url(&quot;#3p8sb&quot;)" xlink:href="#3p8sa"/></g></g></svg>