<svg xmlns="http://www.w3.org/2000/svg" xmlns:xlink="http://www.w3.org/1999/xlink" width="46" height="45" viewBox="0 0 46 45"><defs><path id="rkeaa" d="M365.656 434.427c.616.056 1.095.577 1.04 1.192l-.29 9.128c.095.533-.425 1.01-.96 1.104l-5.817.42c-.712 1.556-1.356 2.88-2.465 4.065l2.339 5.365c.246.451.04 1.148-.412 1.393l-7.981 4.322c-.452.245-1.15.038-1.396-.414l-3.242-4.875c-1.684.131-3.217.181-4.763-.151l-3.52 4.636c-.37.395-.903.49-1.45.2l-7.842-4.724c-.547-.289-.725-.973-.437-1.519l2.575-5.294c-.56-.672-.89-1.274-1.3-2.027-.41-.753-.82-1.506-.998-2.19l-5.858-.728c-.616-.056-1.095-.577-1.04-1.192l.291-9.128c-.095-.534.425-1.01.959-1.104l5.817-.42c.713-1.556 1.356-2.88 2.466-4.066l-2.27-5.596c-.247-.452-.041-1.148.41-1.393l7.982-4.322c.452-.245 1.15-.038 1.396.414l3.242 4.875c1.684-.132 3.217-.182 4.763.15l3.438-4.786c.37-.395.903-.49 1.45-.2l7.842 4.724c.547.288.725.972.437 1.519l-2.575 5.294c.561.671.89 1.274 1.3 2.027.41.753.82 1.506.998 2.19zm-13.947.532c-2.298-4.216-7.417-5.735-11.633-3.452-4.217 2.284-5.725 7.391-3.427 11.607 2.298 4.216 7.417 5.735 11.633 3.451 4.217-2.283 5.725-7.39 3.427-11.606z"/></defs><g><g transform="translate(-321 -417)"><use fill="#3eb5f1" xlink:href="#rkeaa"/></g></g></svg>