<svg xmlns="http://www.w3.org/2000/svg" xmlns:xlink="http://www.w3.org/1999/xlink" width="64" height="66" viewBox="0 0 64 66"><defs><path id="kztra" d="M444.961 446.597c.756.498 1.007 1.494.504 2.242l-6.799 11.455c-.252.747-1.259.997-2.014.747l-7.806-3.486c-2.015 1.494-3.778 2.74-6.044 3.486l-.755 8.468c0 .747-.756 1.494-1.511 1.494H407.19c-.755 0-1.51-.747-1.51-1.494l-.756-8.468c-2.266-.996-4.28-1.992-6.044-3.486l-7.806 3.486c-.755.25-1.51 0-2.014-.747l-6.799-11.455c-.504-.748-.252-1.744.504-2.242l7.05-4.98c-.252-1.246-.252-2.242-.252-3.487s0-2.49.252-3.487l-7.05-4.98c-.756-.499-1.008-1.494-.504-2.242l6.799-11.455c.252-.748 1.259-.997 2.014-.748l7.806 3.487c2.015-1.494 3.778-2.74 6.044-3.487l1.007-8.716c0-.747.755-1.494 1.51-1.494h13.347c.755 0 1.51.747 1.51 1.494l.756 8.467c2.266.997 4.28 1.992 6.043 3.487l7.806-3.736c.756-.249 1.511 0 2.015.748l6.799 11.455c.503.747.251 1.744-.504 2.241l-7.05 4.981c.251 1.245.251 2.242.251 3.487s0 2.49-.252 3.487zm-18.382-8.965c0-6.973-5.54-12.452-12.59-12.452s-12.59 5.479-12.59 12.452 5.54 12.451 12.59 12.451 12.59-5.478 12.59-12.451z"/></defs><g><g transform="translate(-382 -405)"><use fill="#dcdcdc" xlink:href="#kztra"/></g></g></svg>