<svg xmlns="http://www.w3.org/2000/svg" xmlns:xlink="http://www.w3.org/1999/xlink" width="31" height="32" viewBox="0 0 31 32"><defs><path id="65n6a" d="M390.693 404.384c.356.237.475.711.238 1.067l-3.206 5.448c-.118.355-.593.474-.95.355l-3.68-1.658c-.949.71-1.78 1.303-2.848 1.658l-.356 4.027c0 .356-.356.711-.712.711h-6.292c-.356 0-.712-.355-.712-.71l-.356-4.028c-1.069-.473-2.018-.947-2.85-1.658l-3.679 1.658c-.356.119-.712 0-.95-.355l-3.205-5.448c-.237-.356-.119-.83.238-1.067l3.323-2.368c-.118-.592-.118-1.066-.118-1.658 0-.593 0-1.185.118-1.659l-3.323-2.368c-.357-.237-.475-.711-.238-1.066l3.205-5.449c.119-.355.594-.474.95-.355l3.68 1.658c.95-.71 1.78-1.303 2.849-1.658l.475-4.146c0-.355.356-.71.712-.71h6.291c.356 0 .713.355.713.71l.356 4.027c1.068.474 2.018.948 2.849 1.658l3.68-1.776c.356-.118.712 0 .95.355l3.204 5.449c.238.355.119.829-.237 1.066l-3.324 2.368c.119.593.119 1.066.119 1.659 0 .592 0 1.184-.119 1.658zm-8.665-4.263c0-3.317-2.612-5.923-5.936-5.923s-5.935 2.606-5.935 5.923c0 3.316 2.611 5.922 5.935 5.922 3.324 0 5.936-2.606 5.936-5.922z"/></defs><g><g transform="translate(-361 -384)"><use fill="#003d5b" xlink:href="#65n6a"/></g></g></svg>